<svg width="800" height="800" viewBox="0 0 800 800" fill="none" xmlns="http://www.w3.org/2000/svg">
<g clip-path="url(#clip0_0_3)">
<path d="M784.912 364.356L435.625 15.0875C415.522 -5.02811 382.897 -5.02811 362.769 15.0875L290.237 87.6188L382.247 179.628C403.628 172.403 428.147 177.25 445.191 194.294C462.316 211.447 467.128 236.175 459.728 257.625L548.4 346.3C569.853 338.909 594.606 343.691 611.741 360.853C635.688 384.791 635.688 423.588 611.741 447.541C587.788 471.497 548.991 471.497 525.025 447.541C507.012 429.509 502.563 403.056 511.681 380.866L428.988 298.172L428.978 515.788C434.973 518.752 440.448 522.667 445.191 527.381C469.137 551.319 469.137 590.119 445.191 614.091C421.237 638.034 382.422 638.034 358.503 614.091C334.556 590.119 334.556 551.322 358.503 527.384C364.242 521.643 371.062 517.096 378.569 514.006V294.363C371.051 291.294 364.227 286.744 358.503 280.984C340.359 262.866 335.997 236.244 345.294 213.966L254.594 123.256L15.0937 362.741C-5.03125 382.875 -5.03125 415.503 15.0937 435.622L364.387 784.897C384.497 805.016 417.116 805.016 437.25 784.897L784.909 437.244C805.028 417.119 805.031 384.472 784.912 364.356Z" fill="#B69820"/>
</g>
<defs>
<clipPath id="clip0_0_3">
<rect width="800" height="800" fill="white"/>
</clipPath>
</defs>
</svg>
